<?xml version="1.0" standalone="no"?><svg xmlns="http://www.w3.org/2000/svg" viewBox="0 0 1440 320"><path fill="#ffffff" fill-opacity="1" d="M0,192L20,202.7C40,213,80,235,120,245.3C160,256,200,256,240,224C280,192,320,128,360,96C400,64,440,64,480,90.7C520,117,560,171,600,160C640,149,680,75,720,80C760,85,800,171,840,170.7C880,171,920,85,960,48C1000,11,1040,21,1080,37.3C1120,53,1160,75,1200,69.3C1240,64,1280,32,1320,42.7C1360,53,1400,107,1420,133.3L1440,160L1440,320L1420,320C1400,320,1360,320,1320,320C1280,320,1240,320,1200,320C1160,320,1120,320,1080,320C1040,320,1000,320,960,320C920,320,880,320,840,320C800,320,760,320,720,320C680,320,640,320,600,320C560,320,520,320,480,320C440,320,400,320,360,320C320,320,280,320,240,320C200,320,160,320,120,320C80,320,40,320,20,320L0,320Z"></path></svg>